<svg width="21" height="20" viewBox="0 0 21 20" fill="none" xmlns="http://www.w3.org/2000/svg">
<path d="M10.4017 19.1466L8.92929 17.8265C7.21992 16.2864 5.80674 14.9578 4.68972 13.8408C3.57271 12.7238 2.68418 11.7208 2.02413 10.832C1.36408 9.94377 0.90306 9.12733 0.64107 8.38266C0.378404 7.63799 0.24707 6.87639 0.24707 6.09787C0.24707 4.50697 0.780189 3.17841 1.84643 2.11217C2.91266 1.04594 4.24123 0.512817 5.83212 0.512817C6.71219 0.512817 7.54995 0.698986 8.3454 1.07132C9.14084 1.44366 9.82628 1.96832 10.4017 2.64529C10.9771 1.96832 11.6626 1.44366 12.458 1.07132C13.2535 0.698986 14.0912 0.512817 14.9713 0.512817C16.5622 0.512817 17.8908 1.04594 18.957 2.11217C20.0232 3.17841 20.5563 4.50697 20.5563 6.09787C20.5563 6.87639 20.4254 7.63799 20.1634 8.38266C19.9007 9.12733 19.4393 9.94377 18.7793 10.832C18.1192 11.7208 17.2307 12.7238 16.1137 13.8408C14.9967 14.9578 13.5835 16.2864 11.8741 17.8265L10.4017 19.1466ZM10.4017 16.4048C12.0265 14.9493 13.3635 13.701 14.4128 12.6598C15.4621 11.6193 16.2914 10.7142 16.9007 9.94445C17.51 9.17405 17.9331 8.48827 18.17 7.88712C18.4069 7.28664 18.5254 6.69022 18.5254 6.09787C18.5254 5.0824 18.1869 4.23618 17.51 3.55921C16.833 2.88223 15.9868 2.54375 14.9713 2.54375C14.1759 2.54375 13.4396 2.76782 12.7627 3.21598C12.0857 3.66482 11.6203 4.23618 11.3664 4.93008H9.43702C9.18315 4.23618 8.71773 3.66482 8.04076 3.21598C7.36378 2.76782 6.62757 2.54375 5.83212 2.54375C4.81666 2.54375 3.97044 2.88223 3.29346 3.55921C2.61649 4.23618 2.278 5.0824 2.278 6.09787C2.278 6.69022 2.39647 7.28664 2.63341 7.88712C2.87035 8.48827 3.29346 9.17405 3.90274 9.94445C4.51202 10.7142 5.34131 11.6193 6.39063 12.6598C7.43994 13.701 8.77697 14.9493 10.4017 16.4048Z" fill="#CDCDCD"/>
</svg>
