<svg width="67" height="51" viewBox="0 0 67 51" fill="none" xmlns="http://www.w3.org/2000/svg">
<g clip-path="url(#clip0_106_2755)">
<path d="M67 19.5534C66.7399 19.5483 66.6889 19.2289 66.6124 18.9197C64.8377 11.9135 60.2633 7.09742 54.2558 3.42704C52.6341 2.43847 50.8747 1.69831 48.9776 1.43469C43.3934 0.653976 37.7787 0.689463 32.1588 0.826342C31.0572 0.85169 30.9909 1.25726 31.4703 2.07346C32.3934 3.63996 33.5204 5.13549 34.1783 6.80845C35.7286 10.7729 38.2223 12.897 42.6948 11.878C42.8121 11.8527 42.9447 11.8831 43.0722 11.8882C49.4621 12.1619 54.4904 16.1568 56.158 22.2808C57.6879 27.9283 55.1636 34.1893 50.018 37.4896C45.8668 40.146 43.4342 39.5123 41.1649 35.1829C40.9048 34.681 40.6549 34.1741 40.3999 33.6671C35.2696 23.386 30.1444 13.0998 24.9988 2.82376C24.5194 1.86561 24.2083 0.765507 23.1221 0C22.2143 1.79463 21.3627 3.46759 20.5161 5.14563C17.0024 12.1011 13.5244 19.0667 9.96483 25.9917C9.82714 26.2554 9.71495 26.5088 9.63845 26.742C9.57216 26.9195 9.53136 27.0918 9.50586 27.2591C9.81694 27.4619 10.1178 27.6749 10.4085 27.8979C13.2745 30.0576 15.396 33.1551 16.3038 36.7291C16.4364 37.2411 16.5384 37.7684 16.62 38.3007C16.8188 38.1892 16.9616 38.0421 17.0738 37.885C17.2574 37.6112 17.3441 37.3071 17.4818 37.0384C19.2055 33.6164 20.9496 30.2046 22.5968 26.7471C23.168 25.5507 23.5301 25.4645 24.2542 26.6153C26.1666 29.6621 27.5588 32.9675 29.1601 36.1613C31.1337 40.1055 33.1481 44.0192 36.3507 47.1573C39.5432 50.2903 43.3934 51.8213 47.7588 50.5589C56.9128 47.9025 63.5169 42.331 66.5716 33.0942C66.694 32.7292 66.6277 32.2679 67 32.1969V19.5534Z" fill="black"/>
<path d="M6.67552 45.5856C10.3623 45.5856 13.351 42.6146 13.351 38.9496C13.351 35.2846 10.3623 32.3135 6.67552 32.3135C2.98873 32.3135 0 35.2846 0 38.9496C0 42.6146 2.98873 45.5856 6.67552 45.5856Z" fill="#ED0641"/>
<path d="M9.63843 26.7419L10.4085 27.8978C13.2745 30.0574 15.396 33.155 16.3037 36.729L17.0738 37.8849C16.2783 33.2158 13.504 29.2058 9.63843 26.7419Z" fill="black"/>
</g>
<defs>
<clipPath id="clip0_106_2755">
<rect width="67" height="51" fill="white"/>
</clipPath>
</defs>
</svg>
