<svg width="20" height="22" viewBox="0 0 20 22" fill="none" xmlns="http://www.w3.org/2000/svg">
<path d="M16.0103 21.1623C15.1641 21.1623 14.4448 20.8661 13.8524 20.2738C13.2601 19.6814 12.9639 18.9621 12.9639 18.1159C12.9639 17.9974 12.9723 17.8746 12.9893 17.7473C13.0062 17.6207 13.0316 17.5066 13.0654 17.4051L5.90641 13.2417C5.6187 13.4956 5.29713 13.6942 4.94172 13.8378C4.58631 13.982 4.21397 14.0541 3.82471 14.0541C2.97849 14.0541 2.25921 13.7579 1.66685 13.1655C1.0745 12.5732 0.77832 11.8539 0.77832 11.0077C0.77832 10.1614 1.0745 9.44216 1.66685 8.84981C2.25921 8.25745 2.97849 7.96128 3.82471 7.96128C4.21397 7.96128 4.58631 8.03303 4.94172 8.17655C5.29713 8.32075 5.6187 8.51978 5.90641 8.77365L13.0654 4.61024C13.0316 4.5087 13.0062 4.39463 12.9893 4.26803C12.9723 4.14076 12.9639 4.01789 12.9639 3.89942C12.9639 3.0532 13.2601 2.33391 13.8524 1.74156C14.4448 1.1492 15.1641 0.853027 16.0103 0.853027C16.8565 0.853027 17.5758 1.1492 18.1681 1.74156C18.7605 2.33391 19.0567 3.0532 19.0567 3.89942C19.0567 4.74564 18.7605 5.46493 18.1681 6.05728C17.5758 6.64963 16.8565 6.94581 16.0103 6.94581C15.621 6.94581 15.2487 6.87371 14.8933 6.72952C14.5379 6.586 14.2163 6.38731 13.9286 6.13344L6.76956 10.2968C6.80341 10.3984 6.82879 10.5125 6.84572 10.6391C6.86264 10.7663 6.8711 10.8892 6.8711 11.0077C6.8711 11.1261 6.86264 11.2487 6.84572 11.3753C6.82879 11.5025 6.80341 11.6169 6.76956 11.7185L13.9286 15.8819C14.2163 15.628 14.5379 15.429 14.8933 15.2848C15.2487 15.1413 15.621 15.0695 16.0103 15.0695C16.8565 15.0695 17.5758 15.3657 18.1681 15.9581C18.7605 16.5504 19.0567 17.2697 19.0567 18.1159C19.0567 18.9621 18.7605 19.6814 18.1681 20.2738C17.5758 20.8661 16.8565 21.1623 16.0103 21.1623ZM16.0103 4.91488C16.298 4.91488 16.539 4.81774 16.7333 4.62344C16.9283 4.42848 17.0257 4.18713 17.0257 3.89942C17.0257 3.6117 16.9283 3.37036 16.7333 3.17539C16.539 2.9811 16.298 2.88396 16.0103 2.88396C15.7226 2.88396 15.4816 2.9811 15.2873 3.17539C15.0923 3.37036 14.9948 3.6117 14.9948 3.89942C14.9948 4.18713 15.0923 4.42848 15.2873 4.62344C15.4816 4.81774 15.7226 4.91488 16.0103 4.91488ZM3.82471 12.0231C4.11243 12.0231 4.35377 11.9256 4.54874 11.7307C4.74303 11.5364 4.84018 11.2954 4.84018 11.0077C4.84018 10.72 4.74303 10.4786 4.54874 10.2836C4.35377 10.0893 4.11243 9.9922 3.82471 9.9922C3.537 9.9922 3.29566 10.0893 3.10069 10.2836C2.90639 10.4786 2.80925 10.72 2.80925 11.0077C2.80925 11.2954 2.90639 11.5364 3.10069 11.7307C3.29566 11.9256 3.537 12.0231 3.82471 12.0231ZM16.0103 19.1314C16.298 19.1314 16.539 19.0339 16.7333 18.8389C16.9283 18.6446 17.0257 18.4036 17.0257 18.1159C17.0257 17.8282 16.9283 17.5872 16.7333 17.3929C16.539 17.1979 16.298 17.1005 16.0103 17.1005C15.7226 17.1005 15.4816 17.1979 15.2873 17.3929C15.0923 17.5872 14.9948 17.8282 14.9948 18.1159C14.9948 18.4036 15.0923 18.6446 15.2873 18.8389C15.4816 19.0339 15.7226 19.1314 16.0103 19.1314Z" fill="#CDCDCD"/>
</svg>
