<svg width="32" height="32" viewBox="0 0 32 32" fill="none" xmlns="http://www.w3.org/2000/svg">
<mask id="mask0_106_3892" style="mask-type:alpha" maskUnits="userSpaceOnUse" x="0" y="0" width="32" height="32">
<rect width="32" height="32" fill="#D9D9D9"/>
</mask>
<g mask="url(#mask0_106_3892)">
<path d="M6.66667 23.8C7.86667 22.6222 9.26133 21.6942 10.8507 21.016C12.4391 20.3387 14.1556 20 16 20C17.8444 20 19.5613 20.3387 21.1507 21.016C22.7391 21.6942 24.1333 22.6222 25.3333 23.8V6.66667H6.66667V23.8ZM16 17.3333C17.2889 17.3333 18.3889 16.8778 19.3 15.9667C20.2111 15.0556 20.6667 13.9556 20.6667 12.6667C20.6667 11.3778 20.2111 10.2778 19.3 9.36667C18.3889 8.45556 17.2889 8 16 8C14.7111 8 13.6111 8.45556 12.7 9.36667C11.7889 10.2778 11.3333 11.3778 11.3333 12.6667C11.3333 13.9556 11.7889 15.0556 12.7 15.9667C13.6111 16.8778 14.7111 17.3333 16 17.3333ZM6.66667 28C5.93333 28 5.30533 27.7391 4.78267 27.2173C4.26089 26.6947 4 26.0667 4 25.3333V6.66667C4 5.93333 4.26089 5.30533 4.78267 4.78267C5.30533 4.26089 5.93333 4 6.66667 4H25.3333C26.0667 4 26.6947 4.26089 27.2173 4.78267C27.7391 5.30533 28 5.93333 28 6.66667V25.3333C28 26.0667 27.7391 26.6947 27.2173 27.2173C26.6947 27.7391 26.0667 28 25.3333 28H6.66667ZM9.33333 25.3333H22.6667V25C21.7333 24.2222 20.7 23.6391 19.5667 23.2507C18.4333 22.8613 17.2444 22.6667 16 22.6667C14.7556 22.6667 13.5667 22.8613 12.4333 23.2507C11.3 23.6391 10.2667 24.2222 9.33333 25V25.3333ZM16 14.6667C15.4444 14.6667 14.9724 14.472 14.584 14.0827C14.1947 13.6942 14 13.2222 14 12.6667C14 12.1111 14.1947 11.6391 14.584 11.2507C14.9724 10.8613 15.4444 10.6667 16 10.6667C16.5556 10.6667 17.0276 10.8613 17.416 11.2507C17.8053 11.6391 18 12.1111 18 12.6667C18 13.2222 17.8053 13.6942 17.416 14.0827C17.0276 14.472 16.5556 14.6667 16 14.6667Z" fill="#1C1B1F"/>
</g>
</svg>
