<svg width="32" height="32" viewBox="0 0 32 32" fill="none" xmlns="http://www.w3.org/2000/svg">
<path d="M28 8.66669C28 11.24 25.9067 13.3334 23.3333 13.3334C20.76 13.3334 18.6667 11.24 18.6667 8.66669C18.6667 6.09336 20.76 4.00003 23.3333 4.00003C25.9067 4.00003 28 6.09336 28 8.66669ZM25.3333 15.72C24.6667 15.8934 24 16 23.3333 16C21.3895 15.9965 19.5263 15.2228 18.1518 13.8483C16.7773 12.4737 16.0035 10.6105 16 8.66669C16 6.70669 16.7733 4.93336 18 3.61336C17.758 3.31675 17.4529 3.07785 17.1069 2.91409C16.761 2.75032 16.3828 2.6658 16 2.66669C14.5333 2.66669 13.3333 3.86669 13.3333 5.33336V5.72003C9.37333 6.89336 6.66667 10.5334 6.66667 14.6667V22.6667L4 25.3334V26.6667H28V25.3334L25.3333 22.6667V15.72ZM16 30.6667C17.48 30.6667 18.6667 29.48 18.6667 28H13.3333C13.3333 28.7073 13.6143 29.3855 14.1144 29.8856C14.6145 30.3857 15.2928 30.6667 16 30.6667Z" fill="#ED0641"/>
</svg>
