<svg width="32" height="32" viewBox="0 0 32 32" fill="none" xmlns="http://www.w3.org/2000/svg">
<mask id="mask0_106_3897" style="mask-type:alpha" maskUnits="userSpaceOnUse" x="0" y="0" width="32" height="32">
<rect width="32" height="32" fill="#D9D9D9"/>
</mask>
<g mask="url(#mask0_106_3897)">
<path d="M16 29.3332C15.2667 29.3332 14.6391 29.0723 14.1173 28.5505C13.5947 28.0278 13.3333 27.3998 13.3333 26.6665H18.6667C18.6667 27.3998 18.4058 28.0278 17.884 28.5505C17.3613 29.0723 16.7333 29.3332 16 29.3332ZM10.6667 25.3332V22.6665H21.3333V25.3332H10.6667ZM11 21.3332C9.46667 20.4221 8.25022 19.1998 7.35067 17.6665C6.45022 16.1332 6 14.4665 6 12.6665C6 9.88873 6.97244 7.52784 8.91733 5.58384C10.8613 3.63895 13.2222 2.6665 16 2.6665C18.7778 2.6665 21.1387 3.63895 23.0827 5.58384C25.0276 7.52784 26 9.88873 26 12.6665C26 14.4665 25.5502 16.1332 24.6507 17.6665C23.7502 19.1998 22.5333 20.4221 21 21.3332H11ZM11.8 18.6665H20.2C21.2 17.9554 21.9724 17.0776 22.5173 16.0332C23.0613 14.9887 23.3333 13.8665 23.3333 12.6665C23.3333 10.6221 22.6222 8.88873 21.2 7.4665C19.7778 6.04428 18.0444 5.33317 16 5.33317C13.9556 5.33317 12.2222 6.04428 10.8 7.4665C9.37778 8.88873 8.66667 10.6221 8.66667 12.6665C8.66667 13.8665 8.93911 14.9887 9.484 16.0332C10.028 17.0776 10.8 17.9554 11.8 18.6665Z" fill="#1C1B1F"/>
</g>
</svg>
