<svg width="32" height="32" viewBox="0 0 32 32" fill="none" xmlns="http://www.w3.org/2000/svg">
<mask id="mask0_106_3902" style="mask-type:alpha" maskUnits="userSpaceOnUse" x="0" y="0" width="32" height="32">
<rect width="32" height="32" fill="#D9D9D9"/>
</mask>
<g mask="url(#mask0_106_3902)">
<path d="M12.6667 17.3332C13.0444 17.3332 13.3613 17.2052 13.6173 16.9492C13.8724 16.6941 14 16.3776 14 15.9998C14 15.6221 13.8724 15.3052 13.6173 15.0492C13.3613 14.7941 13.0444 14.6665 12.6667 14.6665C12.2889 14.6665 11.9724 14.7941 11.7173 15.0492C11.4613 15.3052 11.3333 15.6221 11.3333 15.9998C11.3333 16.3776 11.4613 16.6941 11.7173 16.9492C11.9724 17.2052 12.2889 17.3332 12.6667 17.3332ZM17.3333 17.3332C17.7111 17.3332 18.028 17.2052 18.284 16.9492C18.5391 16.6941 18.6667 16.3776 18.6667 15.9998C18.6667 15.6221 18.5391 15.3052 18.284 15.0492C18.028 14.7941 17.7111 14.6665 17.3333 14.6665C16.9556 14.6665 16.6391 14.7941 16.384 15.0492C16.128 15.3052 16 15.6221 16 15.9998C16 16.3776 16.128 16.6941 16.384 16.9492C16.6391 17.2052 16.9556 17.3332 17.3333 17.3332ZM22 17.3332C22.3778 17.3332 22.6942 17.2052 22.9493 16.9492C23.2053 16.6941 23.3333 16.3776 23.3333 15.9998C23.3333 15.6221 23.2053 15.3052 22.9493 15.0492C22.6942 14.7941 22.3778 14.6665 22 14.6665C21.6222 14.6665 21.3053 14.7941 21.0493 15.0492C20.7942 15.3052 20.6667 15.6221 20.6667 15.9998C20.6667 16.3776 20.7942 16.6941 21.0493 16.9492C21.3053 17.2052 21.6222 17.3332 22 17.3332ZM4 15.9998L9.8 7.79984C10.0444 7.44428 10.3609 7.1665 10.7493 6.9665C11.1387 6.7665 11.5556 6.6665 12 6.6665H25.3333C26.0667 6.6665 26.6947 6.92784 27.2173 7.4505C27.7391 7.97228 28 8.59984 28 9.33317V22.6665C28 23.3998 27.7391 24.0278 27.2173 24.5505C26.6947 25.0723 26.0667 25.3332 25.3333 25.3332H12C11.5556 25.3332 11.1387 25.2332 10.7493 25.0332C10.3609 24.8332 10.0444 24.5554 9.8 24.1998L4 15.9998ZM7.26667 15.9998L12 22.6665H25.3333V9.33317H12L7.26667 15.9998Z" fill="#1C1B1F"/>
</g>
</svg>
