<svg width="32" height="32" viewBox="0 0 32 32" fill="none" xmlns="http://www.w3.org/2000/svg">
<path d="M7.7974 22.7998C8.93073 21.9332 10.1974 21.2496 11.5974 20.7492C12.9974 20.2496 14.4641 19.9998 15.9974 19.9998C17.5307 19.9998 18.9974 20.2496 20.3974 20.7492C21.7974 21.2496 23.0641 21.9332 24.1974 22.7998C24.9752 21.8887 25.581 20.8554 26.0147 19.6998C26.4476 18.5443 26.6641 17.311 26.6641 15.9998C26.6641 13.0443 25.6254 10.5274 23.5481 8.44917C21.4698 6.37184 18.953 5.33317 15.9974 5.33317C13.0418 5.33317 10.5254 6.37184 8.44806 8.44917C6.36984 10.5274 5.33073 13.0443 5.33073 15.9998C5.33073 17.311 5.54762 18.5443 5.9814 19.6998C6.41429 20.8554 7.01962 21.8887 7.7974 22.7998ZM15.9974 17.3332C14.6863 17.3332 13.5805 16.8834 12.6801 15.9838C11.7805 15.0834 11.3307 13.9776 11.3307 12.6665C11.3307 11.3554 11.7805 10.2496 12.6801 9.34917C13.5805 8.44962 14.6863 7.99984 15.9974 7.99984C17.3085 7.99984 18.4143 8.44962 19.3147 9.34917C20.2143 10.2496 20.6641 11.3554 20.6641 12.6665C20.6641 13.9776 20.2143 15.0834 19.3147 15.9838C18.4143 16.8834 17.3085 17.3332 15.9974 17.3332ZM15.9974 29.3332C14.153 29.3332 12.4196 28.983 10.7974 28.2825C9.17518 27.583 7.76406 26.6332 6.56406 25.4332C5.36406 24.2332 4.41429 22.8221 3.71473 21.1998C3.01428 19.5776 2.66406 17.8443 2.66406 15.9998C2.66406 14.1554 3.01428 12.4221 3.71473 10.7998C4.41429 9.17762 5.36406 7.76651 6.56406 6.56651C7.76406 5.3665 9.17518 4.41628 10.7974 3.71584C12.4196 3.01628 14.153 2.6665 15.9974 2.6665C17.8418 2.6665 19.5752 3.01628 21.1974 3.71584C22.8196 4.41628 24.2307 5.3665 25.4307 6.56651C26.6307 7.76651 27.5805 9.17762 28.2801 10.7998C28.9805 12.4221 29.3307 14.1554 29.3307 15.9998C29.3307 17.8443 28.9805 19.5776 28.2801 21.1998C27.5805 22.8221 26.6307 24.2332 25.4307 25.4332C24.2307 26.6332 22.8196 27.583 21.1974 28.2825C19.5752 28.983 17.8418 29.3332 15.9974 29.3332ZM15.9974 26.6665C17.1752 26.6665 18.2863 26.4945 19.3307 26.1505C20.3752 25.8056 21.3307 25.311 22.1974 24.6665C21.3307 24.0221 20.3752 23.5274 19.3307 23.1825C18.2863 22.8385 17.1752 22.6665 15.9974 22.6665C14.8196 22.6665 13.7085 22.8385 12.6641 23.1825C11.6196 23.5274 10.6641 24.0221 9.7974 24.6665C10.6641 25.311 11.6196 25.8056 12.6641 26.1505C13.7085 26.4945 14.8196 26.6665 15.9974 26.6665ZM15.9974 14.6665C16.5752 14.6665 17.053 14.4776 17.4307 14.0998C17.8085 13.7221 17.9974 13.2443 17.9974 12.6665C17.9974 12.0887 17.8085 11.611 17.4307 11.2332C17.053 10.8554 16.5752 10.6665 15.9974 10.6665C15.4196 10.6665 14.9418 10.8554 14.5641 11.2332C14.1863 11.611 13.9974 12.0887 13.9974 12.6665C13.9974 13.2443 14.1863 13.7221 14.5641 14.0998C14.9418 14.4776 15.4196 14.6665 15.9974 14.6665Z" fill="#979797"/>
</svg>
