<svg width="32" height="32" viewBox="0 0 32 32" fill="none" xmlns="http://www.w3.org/2000/svg">
<mask id="mask0_106_3887" style="mask-type:alpha" maskUnits="userSpaceOnUse" x="0" y="0" width="32" height="32">
<rect width="32" height="32" fill="#D9D9D9"/>
</mask>
<g mask="url(#mask0_106_3887)">
<path d="M6.66667 28.0002C5.93333 28.0002 5.30533 27.7393 4.78267 27.2175C4.26089 26.6948 4 26.0668 4 25.3335C4 24.6002 4.26089 23.9722 4.78267 23.4495C5.30533 22.9277 5.93333 22.6668 6.66667 22.6668C7.4 22.6668 8.02756 22.9277 8.54933 23.4495C9.072 23.9722 9.33333 24.6002 9.33333 25.3335C9.33333 26.0668 9.072 26.6948 8.54933 27.2175C8.02756 27.7393 7.4 28.0002 6.66667 28.0002ZM22.6667 28.0002C22.6667 25.4224 22.1778 23.0055 21.2 20.7495C20.2222 18.4944 18.8836 16.5166 17.184 14.8162C15.4836 13.1166 13.5058 11.7779 11.2507 10.8002C8.99467 9.82239 6.57778 9.3335 4 9.3335V5.3335C7.13333 5.3335 10.0778 5.92816 12.8333 7.1175C15.5889 8.30594 17.9889 9.92239 20.0333 11.9668C22.0778 14.0113 23.6947 16.4113 24.884 19.1668C26.0724 21.9224 26.6667 24.8668 26.6667 28.0002H22.6667ZM14.6667 28.0002C14.6667 25.0446 13.6276 22.5282 11.5493 20.4508C9.472 18.3726 6.95556 17.3335 4 17.3335V13.3335C6.04444 13.3335 7.95556 13.7171 9.73333 14.4842C11.5111 15.2504 13.0613 16.2944 14.384 17.6162C15.7058 18.9388 16.7498 20.4891 17.516 22.2668C18.2831 24.0446 18.6667 25.9557 18.6667 28.0002H14.6667Z" fill="#1C1B1F"/>
</g>
</svg>
